/* XPM */
static char *E1678213126[] = {
/* columns rows colors chars-per-pixel */
"63 63 114 2 ",
"   c #3E3524",
".  c #3F3929",
"X  c #423725",
"o  c #423927",
"O  c #403729",
"+  c #443C2C",
"@  c #493D2D",
"#  c #453E31",
"$  c #493F32",
"%  c #47412E",
"&  c #4A412E",
"*  c #50412E",
"=  c #464032",
"-  c #4C4333",
";  c #4F4835",
":  c #4D4539",
">  c #4F493A",
",  c #524635",
"<  c #534936",
"1  c #594A37",
"2  c #504738",
"3  c #544B3B",
"4  c #5A4E3C",
"5  c #57503E",
"6  c #5B513E",
"7  c #62543F",
"8  c #564E41",
"9  c #594F41",
"0  c #575040",
"q  c #5C5342",
"w  c #5F5846",
"e  c #5E554A",
"r  c #5F5848",
"t  c #625544",
"y  c #625946",
"u  c #6A5B46",
"i  c #625749",
"p  c #645B4A",
"a  c #6A5D4B",
"s  c #715F4B",
"d  c #665D51",
"f  c #695E50",
"g  c #6F6147",
"h  c #66604C",
"j  c #6C614E",
"k  c #74644E",
"l  c #78644D",
"z  c #75694E",
"x  c #79694E",
"c  c #676052",
"v  c #6D6452",
"b  c #6F6955",
"n  c #6C6658",
"m  c #6F695A",
"M  c #746552",
"N  c #796652",
"B  c #756A55",
"V  c #7B6B54",
"C  c #756B5A",
"Z  c #7B6D5A",
"A  c #767155",
"S  c #7C7156",
"D  c #76705C",
"F  c #7C715C",
"G  c #7E785D",
"H  c #766E61",
"J  c #7D7462",
"K  c #7F7B60",
"L  c #7F7868",
"P  c #806E56",
"I  c #816E5B",
"U  c #817056",
"Y  c #82735B",
"T  c #89765D",
"R  c #85785E",
"E  c #89795D",
"W  c #837662",
"Q  c #897762",
"!  c #857A64",
"~  c #8A7C64",
"^  c #807768",
"/  c #857D69",
"(  c #8A7E6A",
")  c #917E64",
"_  c #858165",
"`  c #8B8166",
"'  c #8C826C",
"]  c #8E886F",
"[  c #908166",
"{  c #93846D",
"}  c #99866E",
"|  c #93896E",
" . c #9A896E",
".. c #9B936F",
"X. c #8D8572",
"o. c #8F8973",
"O. c #938571",
"+. c #998771",
"@. c #958B74",
"#. c #998C74",
"$. c #958D79",
"%. c #9A8E7A",
"&. c #949274",
"*. c #9B9275",
"=. c #97917D",
"-. c #9B927B",
";. c #9F997B",
":. c #A19074",
">. c #A0947A",
",. c #A1997D",
"<. c #9B9581",
"1. c #9E9984",
"2. c #A29781",
"3. c #A39C82",
/* pixels */
"0 0 > q h p r q 8 : + = > - > c 0 + = = - 5 5 5 < 3 8 3 4 = - p a 0 3 : = : > e > ; = ; & = , 4 w w 4 - < 5 w q h e = # = : 3 ",
"c = 8 $.<.$.<.=.$.( L b 5 ; + + 3 p D ' ' ( / ! v : $ ~ ( W - i G D Z B j p 3 + 3 c b b c b B D D C D B t - O 0 y t w u v C G ",
"J < C 2.$.=.$.$.<.$.$.<.L p = w G #.*.#.*.&.*.&.-.b w #.+.$.p f Z S V Z D F Z C v W J C J Z Z Z F C Z D J j w O.O.@.| | | ` ~ ",
"^ w b =.$.$.@.=.o.<.<.o.J b + 0 ! *.#.@. .#.| | *.C a ~ } @.a a J Z I Z Z Z C Z J Z C C F Z C Z Z Z C D G h v O.( ! / / / / ! ",
"H b q X.<.$.%.$.=.] ' ' D j O 0 ` &.#.#.@.| #.#.-.B B V Q Q 3 a ( ( ( ( W J Z J u i J Z C C Z Z Z C Z F B < F ' / Q ! Q / ! W ",
"L r + J =.X.O.$.' J C D J h . w #.#.@.#.#.*.#.#.#.v a Z V a + f #.#.#.#.O.( G C 3 , b D Z W D Z J J Z D C - D / ! / ` ! ! R ! ",
"J 5 . : r C J J D D D C H q . r *.*.#.#.#.@.#.*.-.p 8 W M : + 0 Z R ' O.#.O.D g - + = 3 q p f b M H C C M - 9 p j C D J ! / / ",
"> : 5 3 - - 3 e h b b ; = % = 3 R ! _ | #.| | ] F + $ 4 @ + 8 8 - - , t a p 3 + # = 3 3 3 = + = - = : 3 - = = - 0 e 0 3 - > 8 ",
"/ X.' v b p 3 + # # 3 0 3 ; = $ - w b r w 0 y 0 q a M a p e : $ > i p 4 + - 3 t j Z R W F Z a ; + p Z W S S U E ~ ) J $ - v Z ",
"=.=.^ ; & - 3 : . e X.=.O.X.B d b c q : o 5 / O.@.#.>.%.$.Q p + 3 b i p M D Z W C w t j W W J b j ( ' ! ! ` ~ ~ ~ ` ~ 3 b =.$.",
"@.=.@.p ; ; < % 0 o.-.O.#.#.^ ! -.-./ m - j ] #.#.#.O.O.@.! M & w t 2 Z Z W J i $ # = + w C H h Q } ~ E ` Q ~ / E E [ p M $.] ",
"&.=.O.Z C C C ; M %.@.#.#.@.O.-.@.' J C 3 C ! #.$.$.#.%.#.O.J 3 3 4 = C J a 2 @ # # + $ % - - e @.@.~ ~ Q ! ~ ~ ` Q ' j q %.$.",
"X.@./ C C Z C = c @.@.%.O.#.@.J C D C H 8 b F | $.$.@.#.$.@.( w : = + i ^ i + = # = = = # = . 8 Z W ( ' ~ ~ Q ~ Q ' X.M + m X.",
"b b B B C v p = $ q c X.%.%./ C D J C C > p J G ( @.%.@.+.#.( 5 # $ : - a m p @ = = = = = $ $ $ O ; 0 M F ( ~ ~ ^ B b p + + 4 ",
"= = - = $ # . # O + O = d J H J H c 8 > $ : w 0 y F @.$.@.@.F 4 + + @ - 3 3 1 $ + $ = $ $ + - , < < @ + $ 3 4 3 & X O O + O @ ",
"3 = $ + 0 C m m n c i 8 # $ 3 8 : . = = # + + + + + 4 i p 0 3 3 i a a N N Z C B f 0 $ 0 p v B Z D F Z m < # q C Z B b h c b i ",
"C j ; 5 =.1.1.1.1.1.1.=.^ 8 $ # a / Q W F F C B v p + 2 ~ V k M P P N N P l P I M 9 @ I Y W I I F F Y W B 4 / =.#.%.%.$.%.%.] ",
"V B > r 1.<.<.<.=.<.=.1.$.p   r $.@.@.#.@.#.%.#.%.' t p +.:.) C P V N P I N N I e # 9 W W Z Z J I Y N Y j 1 ( @.#.#.$.$.$.@.O.",
"z C < h 1.<.<.=.<.<.<.o.J y % J +.+.@.} } } O.+.} W 4 k  . .T N N V V V N N N N 9 $ I I P Y Z Y I P R J 1 , O.#.#.@.@.$.#.#.%.",
"z z & j 1.=.=.1.<.=.<.] C ; + / -.@.} O.#.#.+.} W I 4 k :. .Y N P N P N l P P N $ $ W I Y P V Y Y W J c $ $ v #.@.#.@.#.@.O.{ ",
"C B 4 t / ] $.=.=._ L D w + = m ( O.$.%.#.( O.( Z W y 4 T T N Z C N C Z Z B a 4 , $ h Z Y W W Z M p 2 # = = : D #.@.X.Q F B V ",
"6 4 $ $ 3 y p d r q 0 > . = $ $ & 5 p B ^ M M t t & 5 4 $ , 4 5 4 2 3 t 0 3 = + # $ . - 8 w e 3 + # + = # # # : p p f q 4 t p ",
"J M i 0 3 - @ = O + 3 3 5 4 : - 4 6 5 & $ @ 9 a k B F C C a , - 3 + = 3 , = - 3 8 e q 4 4 3 : + - q ; = - 2 < @ < 3 3 @ 1 C J ",
"#.-.%.$.] | G b - 3 o.=.=.o.X.O.=./ F 5 O 4 O.%.#.#.O.#.%.X.t 4 N u a N V N N M N ~ ` M M C v @ C ] / ! ( ( / ( ( ' Z 4 F -.@.",
"O.#.@.@.%.@.F Z w y -.=.#.-.-.-.<.O.D j + M #.} @.@.+.} @.' g 4 N M l M N N k B k N Y F N M j 3 ' %.&.$.#.$.$.#.*.R C < ' @.} ",
"{ #.#.#.@.+.V V 0 p <.#.-.#.$.&.%.*.! B - Z #.} O.+.| +.{ Q t w B M M B b N B M N z x V k M q p $.O.o.@.@.o.O.*.' V C ; C >.#.",
"+.@.| #.+.#.F k = = ( <.-.-.-.@.' Q V S < Z %.#.#.+.+.+.{ ( t t V N N N N V N B M B k M B p 3 W =.@.@.@.X.@.&.] Z V Z - t %.:.",
"/ R F ~ ! ! J b $ $ 8 o.o.X.X.D C A F C , M ^ Z Q ) { O.X.C @ q Z M a s s f f N B B B j B 4 $ C #.@.&.=.=.-.$./ Z F C 3 - ^ $.",
"B j j b c v v 4 $ = + = & > 3 6 w p h 0 $ : 2 = 3 0 3 i p - + & 3 = @ + = + + , 3 3 - @ 4 $ @ , 4 t p M D Z C c p q , O + 2 p ",
"- & - + + % - + O 4 M w 4 6 3 = . + = - : = # .   $ $ O - 3 p y q 3 0 q 5 4 4 < 3 q t u t a M M u t 3 1 4 < @ @ t 4 3 3 3 : 4 ",
"B p @ 4 V ! ! ! ! ] #.#.#.=.;.0 5 b ] %.=.' L D J ' M $ Z ( M G I Z I I Z I Z Z C N I I V I I N Z Z Z Z Z B < k #.+.O.! F W Y ",
"Z C @ F -.-.*.-.*.*.*.*.#.-.| - v #.,.>.*.,.;.;.;.,.I 4 J Q q N V V N V V N N P t 4 P N V N N P V N V Z Z a @ Q } } } [ Y T P ",
"T M @ ^ ;.&.#.-.*.#.*.-.#.*.Z = b &.1.#.-.>.-.-.*.3.Z q Z Z N V V V Z V V I N P q 7 I V V P N V N Z N V Z q @ Z ~ ) O.( } ( W ",
"F 6 @ ! *...*. ...&.*. .| ` B - A _ &.,.>.*.*.-.*.3.Z 3 C V V N V V V Z V N V N 1 4 Z N V V V N P N V I B 4 $ m T P T T V Y Y ",
"p : $ / -.*.*.-.*.-.@.R S B C & b K | *.,.;.;.;.*.3.C X k Z F N V V N V V Z C u + 3 Z Z I C V Z I P x t < + $ m T T Y Y Y T S ",
"= # : Q { ( ! J L ! C C F D B - q p v C J / L K ' J w @ i p k B N M I V B M t + # $ i M Z N N M f 4 ; + # # # : s H N B Z M 4 ",
"= - 7 T j , - = O @ < 1 1 , 1 y ; - - - = O + < < 3 t p t < 1 4 1 $ < < 3 @ + $ = + & , , , 1 @ = + . = $ : < < $ $ $ = $ + = ",
"V Q ~ [ Y Q $.&.5 & ` [ ~ Y Y ` ~ ` F B j < 4 D F F V G Z R F M B a 1 $ 9 2 i a b B V V N M N t @ t j Z R W E E Z V M b w + 5 ",
"} [ E ) [ Q `  .b & { :. . . . . .} S B D 7 7 Y V U U Y Y U V Y Q ! a 1 C H W P F Y Y U I Y Z q u [ | } } ~ Y U T T T Q G < p ",
"~ ~ ) Q T ) ) ) i * Y #.} #. . .:.{ U S B g N F Y V Y V V V Y Z T ~ M , N Z P P I I V U V Y B = Y Q ~ } ~ Z R Y T Q T R I @ a ",
"[ E ~ ~ ) E ~ [ t - M {  .+.{ E G Z k V x g N F F V V Y V V F F Z F v < C F V P Z V Y V F Y B q T Y ( { T T G Y Y E Y Q j O p ",
"Q ) ) Q ) [ { #.w + j ~ ~ R S j 4 a D Z A u g W S Y P P P Y U V P T 7 1 S V P P U V P P P I V u T T U E E Y T T ~ Y E Q y o w ",
"~ ~ ~ [ ~ +. .N = + 4 b C p g w & w b b F 3 < F N Y Y Z Y Z Z N Z N - , Z F W I Y W F I Y W V 4 z Q ~ W N V D W C u F F 3 + i ",
"t 5 3 0 4 4 4 + + # - $ + $ + # O & O % 4 ; 5 < ; ; 2 3 3 3 - + - = # = : 4 i i p a y w w w 4 + - 0 8 3 + : - 3 = O - 3 O $ 9 ",
"t t 0 = . ; w a p B F b 6 q 3 $ a Z M M M W ~ V a y w 3 $ 3 4 , = = 2 3 $ 3 - $ - + O - , = < 5 f p $ $ + $ = . + 3 5 5 y b v ",
"Y V Y < 4 R ~ Q Q ~ Y Q E _ W , Y O.{ {  .} Q #.#.+.{ Z < u N s u k M B N N k M a @ 4 N V N V D V V M t y 0 + 4 S ' ` R V G S ",
"U U M , D ` U R E Y E E T ~ b X k Y U S S Y V E E ~ ~ Y , s k l N N s s l s N N v @ u V V N V x V z Y V F u 4 ' | ....G N F G ",
"V F h 5 / K R E R E R T ! ! f O j R G Y U U Y Y P Y F Z , j k k k s N N s M M s M , M Z V V B V N V B V C < 5 / T E E S Z Z V ",
"V P g 0 ( Q Y E E E R E R E B + k Y Y P Y F W U P U W v @ B N l l l s N s N s l M - t F N x N N V l V V w + 6 F Z V S V U V N ",
"V F j 3 C / ` R E ! ! ` Q ~ L - j R Z T F p 6 N Y W C 3 @ p M N N M N M V M N N p + - a V Y V V V V V q $ O 5 W F G S Y Z W Z ",
"C M q . % 6 B V C v v w 7 6 3 & < B M t - + @ , w p ; + + - - q q t u f a 3 9 t $ $ = + < t a b B B c , + + @ q y y y y 0 i b ",
"j t < < 6 y 6 < 4 : + 4 u y t M v p 4 4 - + 0 M a j k R F W b @ @ O O + O $ , , - = $ = 4 3 & $ = < 6 4 9 p y a 4 O + + $ O e ",
"F R Z R ! ' ` Q F B - J W I Y Z Z W T Y B @ 4 B u M Q V Y I C < y j j < 3 p M B B j p b Z V M 0 @ p C V C Z Z N N p j v < @ Z ",
"N Z V V S S V V V V - Z V P P V I V V V J - 4 Z V z V z x V N t S V M 1 N C V M x V Z B B V Z 4 , V N z N N N x V N V C , 3 G ",
"V V V S V N V F V V < B V Y N Y V P P V V - 9 Z x F x N N V a k V V u y Y M N V x x z B M N M - 3 Z N N Z B N x k N V f @ i F ",
"C Z V V S D V V V k , Z V V Y V V I V F Z - 4 Z V x C V D M N z C Z y B B C M B z B C M z B B = 9 N N N N M B B B N C 4 + p S ",
"V V Y V V Z U V V B < C V S Y I P Z Z M 0 - < B V N N N N V x V x N t B N x x B N V x x z z B ; 8 B N z B M C N N M C ; + w S ",
"u B M M M B B Z D u @ a F A t 1 4 a 9 $ $ . - b Z Z Z D I Z N V V B 6 C V N B C B B B B C Z B - $ M Z V N C V N N Z v = . p C ",
". - - & + % @ - @ & - 4 : % - 5 5 > - = + 3 p 5 3 4 w t q 6 a k B p 5 j M v v v M B C v M a e # @ , u f p u y g M M 4 + ; M M ",
"p % + 5 p b p w p h D B ; ; b _ ` K J B h b F v ; + 6 k a t t < , & O ; , , + - $ & ; < @ - 3 3 t q 4 $ $ 4 y u t 4 4 y C W B ",
"F < w F G D G G J D G G 4 p ] &.&.&.&._ A A A S C < j W I Y I M a u u M M f < 4 a u u s M M N B N Z q X i Z ` { [ ~ Q F D V M ",
"C 5 j R F F G S F Y S Y 6 D | &._ G R G A A A A D 4 s N s M k l C k N N Z a 1 a N z z k k N N k k N 3 , Z R ` ` ~ ' ' S S S G ",
"u < G F V S F S S G V D 7 A R A D B C B C Z C D B 1 g B N N M Z N M N N f - $ N N x k N k k l k k M 3 q B V F M S M B S Y Y E "
};
