/* XPM */
static char *N_png1678213125[] = {
/* columns rows colors chars-per-pixel */
"63 63 159 2 ",
"   c #4F4635",
".  c #524735",
"X  c #554A36",
"o  c #594D35",
"O  c #52473C",
"+  c #564B3C",
"@  c #5A4E3D",
"#  c #5D5137",
"$  c #5C523D",
"%  c #5F583C",
"&  c #61553E",
"*  c #655A3E",
"=  c #685B3E",
"-  c #6C623F",
";  c #564C42",
":  c #5B4E42",
">  c #594E49",
",  c #575040",
"<  c #5D5343",
"1  c #5F5843",
"2  c #5E5349",
"3  c #5F5848",
"4  c #615544",
"5  c #645945",
"6  c #695D45",
"7  c #62554A",
"8  c #655A4A",
"9  c #695D4B",
"0  c #645650",
"q  c #665A50",
"w  c #6A5D51",
"e  c #676046",
"r  c #6C6146",
"t  c #6D624B",
"y  c #716546",
"u  c #71644C",
"i  c #756A4D",
"p  c #796C4E",
"a  c #7D724C",
"s  c #6E6251",
"d  c #726552",
"f  c #756A53",
"g  c #7A6D54",
"h  c #73665A",
"j  c #766A59",
"k  c #7A6E5B",
"l  c #777052",
"z  c #7C7155",
"x  c #7D725B",
"c  c #7F6F62",
"v  c #7E7361",
"b  c #80724F",
"n  c #817455",
"m  c #877A57",
"M  c #82755C",
"N  c #85795C",
"B  c #897C5E",
"V  c #827662",
"C  c #857A63",
"Z  c #8A7C64",
"A  c #847669",
"S  c #857A68",
"D  c #8A7D6A",
"F  c #8B815D",
"G  c #918659",
"H  c #8D8164",
"J  c #8D816A",
"K  c #928565",
"L  c #948967",
"P  c #9A8B65",
"I  c #92856B",
"U  c #98876B",
"Y  c #958A6C",
"T  c #998D6D",
"R  c #9C916E",
"E  c #8D8271",
"W  c #938671",
"Q  c #968A72",
"!  c #9A8D73",
"~  c #958A78",
"^  c #9C8E79",
"/  c #9D9273",
"(  c #9E927B",
")  c #A1956C",
"_  c #A1986F",
"`  c #A29575",
"'  c #A49875",
"]  c #A89A75",
"[  c #A3957B",
"{  c #A59A7B",
"}  c #A99D7C",
"|  c #ADA076",
" . c #ADA27C",
".. c #B3A67C",
"X. c #B1A87F",
"o. c #A39781",
"O. c #A69981",
"+. c #A99D82",
"@. c #AEA284",
"#. c #AFA689",
"$. c #B2A485",
"%. c #B9A584",
"&. c #B5A985",
"*. c #B9AA83",
"=. c #B3A58B",
"-. c #B6AA8C",
";. c #BAAC8C",
":. c #BCB284",
">. c #BCB28C",
",. c #B5AA92",
"<. c #BBAD93",
"1. c #BDB292",
"2. c #C1B48E",
"3. c #C1B492",
"4. c #C5BA95",
"5. c #C9BC95",
"6. c #C2B599",
"7. c #C6BA99",
"8. c #CABC9A",
"9. c #D1BF97",
"0. c #C9BEA0",
"q. c #CBC194",
"w. c #CEC29C",
"e. c #D1C596",
"r. c #D1C59D",
"t. c #D3C99D",
"y. c #DACE9E",
"u. c #DED39B",
"i. c #CEC2A2",
"p. c #D3C6A2",
"a. c #D6CAA5",
"s. c #D9CDA5",
"d. c #D7CAAD",
"f. c #DBCDAA",
"g. c #DDD1A5",
"h. c #DED3AD",
"j. c #DBD0B2",
"k. c #E2D6A6",
"l. c #E1D5AB",
"z. c #E3D9AB",
"x. c #E2D5B1",
"c. c #E3D9B4",
"v. c #E9DBB6",
"b. c #E2D4BA",
"n. c #E7DAB8",
"m. c #ECDEBC",
"M. c #EDE2B5",
"N. c #EEE3BB",
"B. c #F0E5B7",
"V. c #F0E6BC",
"C. c #F5EABC",
"Z. c #F9EBBD",
"A. c #FDF4BD",
"S. c #F2E4C1",
"D. c #F2E9C0",
"F. c #FAEDC3",
"G. c #FAEEC8",
"H. c #FDF4C4",
"J. c #FFFBC8",
/* pixels */
"< 8 4 7 < d d 3 3 1 9 E 1.F $ 7 5 < 3 2 7 # L &.[ U %.%.%.T N 6 % 3 2 7 t ( 8 9 9 5 e 3 8 9 $ @.5.4.B @ M +.M 6 9 5 5 0 d } * ",
"< 4 4 < < W t < < 7 : + V ;.$ : 2 1 < 3 O f +.M 8 u } ;.U 6 5 > < 3 2 < t 4.f 4 7 4 9 < 3 5 z ` ] 5.] k D T ! Z 8 < 4 6 +.d.U ",
"5 : : @ u ~ ; < 1 < 4 4 $ 1.&.7 : @ 1 X d ~ t 8 8 5 ! ( : 2 < < 2 2 2 @ ! >.R t 2 7 5 f l t w 2 & +.j : 4 + 4 u U B g Y f 6 k ",
"8 k g n ;.g < 1 , 1 $ < $ 4.M.( z j k H w.M 7 5 s 4 ` M O 2 2 4 2 < : M 6.f 6 ` R J j d 8 8 7 2 u J : 7 : 7 ; : g b.} 7 : 4 & ",
", 4 { F.t.= @ < < $ < : g w.r 6 t s d L r.u 9 9 0 5 P ) & : 2 2 < + B ` Z 9 4 Z :.p 4 4 7 7 1 < F t < # 1 1 < < ; Q 9 4 7 # 5 ",
"3 $ y z.l.! 7 < 2 @ 2 ; ! x : 4 2 7 < < g J 4 7 5 n a.4.K z w 4 7 K H 6 : 9 4 6 [ y 4 8 5 5 $ f @.* $ $ $ < < + 6 x $ 4 4 7 4 ",
"7 @ x z u x C k j h 7 f ! 4 7 3 8 7 8 7 1 } [ A T +.D d w x Y } 8.T & 8 7 8 9 4 M V @ 7 < 4 l >.<.D w 8 $ @ 9 C { ( # 4 7 7 7 ",
"7 d V : 2 < @ 8 y v Z 5.&.1 3 5 4 7 7 7 & } K g g 4 < 2 5 4 @ Z 9.g 7 8 5 4 4 7 u 6.T l V A V t = w d L >.j.i.K k R B : : < 4 ",
"M } g @ 5 < < 3 $ < 2 t <.s < $ < 5 2 < N M < 1 < 9 5 4 8 5 5 $ &.' 4 8 8 4 4 < m 4.[ k w 4 4 4 < & < < ;.m.Z 9 9 y 3.9.R C N ",
"k [ u 7 < 4 2 < 3 5 $ < f w.H 9 9 9 t L I < < 8 8 < 5 8 7 5 1 s $.+.V 9 r y x K I & @ 1 4 4 4 < < 8 7 + T ) & u 9 M p.7.-.z f ",
"6 N 9 0 : 5 4 7 7 < < 7 u z.>.A M V { x.V < 8 1 1 t 5 4 1 t d j 5 5 8 8 5 N 1.I + < 7 < < 7 < 4 7 < 7 @ $.4.n g M I d = f Z f ",
"U U < > 8 # 4 4 < 7 7 4 C g 1 9 8 7 9 { J 5 5 7 8 $ 1 d Z v s 1 5 5 8 9 8 4 A u < 8 $ 9 4 1 5 4 4 7 4 r ;.T J x f 4 6 9 9 9 v ",
"` U < 7 4 4 4 < 4 : : M g q 0 8 9 9 7 9 ` = 4 5 8 d u ^ ( & 8 8 5 9 < 7 8 < V V $ 4 & $ < 5 4 < 4 & 4 ^ M 5 8 8 6 w 9 9 w t t ",
"s B : 7 < 4 : < & r ! $.4 8 8 9 5 5 7 4 G 2.! [ Z k 9 Z J & 4 8 8 4 t 3 9 & a g.I f k M x k f 9 e 9 k [ V 6 6 w 6 9 w w 9 9 5 ",
"9 } g @ 5 8 j x D I { =.M 4 4 6 8 9 7 e $.&.M t 8 8 4 ! Z 5 6 8 8 8 5 9 8 $ n 4.V 8 8 4 1 1 v #.M 8 4 5 V Z r 9 9 t 9 s 5 t 9 ",
"7 ..z.K g k f u 9 4 4 9 M V 6 7 8 7 d ! C 4 4 5 5 8 6 J 6 4 4 8 5 8 5 8 2 j J 5 + + < : , $ % H 4 4 4 & @ k ! 5 8 9 q 8 t 5 t ",
"5 ;.i.g 4 7 < 4 7 5 4 7 & Z 3.I Z U w.T & 7 5 8 6 7 T H 7 V u 9 8 8 4 4 k D < + , < + , , $ + f 4 < 2 2 7 $ M } t 5 8 9 q 9 s ",
"K Z 4 @ 8 4 9 7 4 9 7 7 @ M +.d 6 u -.T @ 8 6 7 4 d +.g 8 8 g M x d g K ;.4 $ < < $ , , $ 1 + j s 1 1 4 1 < @ W w.N 5 4 9 7 6 ",
"x 4 7 8 4 5 < 4 5 5 4 : 4 ;.} 6 8 t $.0.f 7 8 8 4 f V $ 9 9 7 4 5 d k } T X @ $ $ , < , + , + s z $ $ 1 , 7 3 O  .F.w.] N Y -.",
"9 4 8 4 4 t x V d 9 g W } 3.] n 9 9 i M M s 5 5 5 Z u 8 5 7 8 6 8 8 & h j @ < , < $ , < 3 + $ k 8.t < < $ $ < 9 H ` ` ' K 4.l.",
"1 8 # t V v V N ] p.7.Z d 5 & 7 9 4 8 % e V 9 8 4 ` M 4 * 6 8 8 8 6 5 u D + + < $ , 3 + , $ X Q 5.+.Z h t 5 g x s 7 < 4 4 6 K ",
"4 8 x C 7 4 @ # # ` T & 4 4 8 8 7 8 5 8 8 t Q & M } ^ u 4 8 < 9 7 7 4 ) 4.@ < , $ , $ , + 3 v k 4 & u d / 4.K 6 8 8 w 8 8 8 v ",
"Q C t 4 : 4 , 4 : d [ < 8 9 4 8 6 9 2 q 5 * U 6.d.b U d.O.Y J V I ^ ;.t.*.I @ X , $ + + d v t $ 4 4 4 @ e ( t 9 e e 5 9 5 5 x ",
"Z 4 < < 5 , 7 > 8 y =.C 1 1 9 5 5 5 7 7 5 f / ` 2.U ` / f u y 9 6 i +.} p [ [ 5 ; O 3 H N < < 7 1 7 7 7 , t k 2 9 7 9 9 5 @ ` ",
"< 2 2 < < < < < 8 s <.p.y 7 0 5 5 5 9 x c g w 7 6 2.Z 7 5 4 9 6 8 & N ( i f D Q ~ ) s.Z $ 3 3 < 2 < < 7 < u @.u 8 5 8 8 5 z w.",
"3 + < 1 1 < 1 < 4 r $.B M 5 6 4 9 z C f 9 t 7 9 u ^ 7 7 5 9 7 6 8 t J 9 @ @ < # V l.v.6 1 3 7 1 3 < 8 < 4 - V.p.Q W Y ( >.M.t.",
"< 4 4 @ < $ 2 < o } ] 8 5 r ` [ C k 9 5 6 9 w 6 j V 4 6 e 3 q 5 7 s t , < < < < @ r 8.d : 4 % 3 7 % 1 4 $ z ;./ z x u f g H 6.",
"4 $ < 4 7 2 2 + Z } f k h D ;.3.9 8 9 9 t 9 9 6 V Z 6 4 3 9 9 3 9 k + < 2 2 < , < X ! I : 3 5 < < 8 5 @ w A s 5 9 9 9 w s $ O.",
"o.f < @ < $ X k @.9 @ < < < r L 7 t 8 9 u 8 w 9 n g ! Z j 5 = 8 x e < , , < , < < ; I 5.e + < 1 8 , , j A t 5 e t t t s 7 6 ` ",
"C Z J B f 6 B ;.g + 7 : 4 < $ x k 9 t q 7 u 7 9 ` n u $.O.9 & g V @ < < 3 < < < < @ 4.H.&.v t 8 8 * U J 9 t e t 6 t t w r y a.",
"$ * 8 k I -.n.}   2 : 4 < < , 7 Z 6 5 9 4 6 g <.@.M @ 6 I [ *.w.7 4 < 4 < $ < < @ z V.$.C J V C I i.a.i 9 s t s t 9 8 4 d <.D ",
"7 7 7 4 < 6 1.' + , < < < < < > n <.N C ^ / D i 4 ; 4 < : R J.5.O 7 > < $ 1 : 2 > &.R 4 : $ $ 4 6 N 7.t s 9 t 9 8 9 f ! 0.n & ",
"7 8 7 7 7 < f &.6 X < 2 < 1 : @ N G.y.} M 9 : @ 2 $ 4 4 + K x.l.M : @ < < , 2 ; i ( 1 , 5 < 7 7 3 + o.j w 9 8 i K 3.z.Z.Z 4 6 ",
"8 5 5 1 7 7 5 q.1.f 7 + < , : : 1.@.t o : < < 4 2 5 @ 7 C [ g N D g t 9 < < , $ H s < % 1 < 7 1 < 1 B ' u k ( #.} Y V.k.4 7 7 ",
"7 8 1 5 5 < g [ U Z v x t t 6 +.Q + : 7 7 7 1 < < $ 4 4 ( $.@ X @ 5 f v C f 6 ` v ; 2 8 % 1 < 5 7 o F N.] N k 5 @ : N w.9 0 7 ",
"6 0 7 8 $ Z A 6 < 8 9 4 f z >.-.o < 7 : < , 1 < < 4 2 ; Q ' @ 2 4 < , < 4 x  .M.z < < 3 1 7 7 < < < ! Y 5 $ < 8 4 7 @ >.Z $ 6 ",
"* < 7 o ! Q 1 7 5 5 9 9 5 4 M Q 2 ; 4 4 4 < @ 4 2 < 2 @ ] g : 2 < < < , < @ 6 4.J @ 7 < 5 < 7 2 $ v x $ 7 8 7 4 % 5 : Q z.a 9 ",
"J C H 2.=.# 9 = 9 9 5 9 8 8 6 ^ 0 7 < & < 7 < 4 7 4 : d ` & < < 1 @ 3 , 2 2 X D 5.& @ 4 , 7 < < B x , 7 7 , 5 8 5 1 2 x A.M.=.",
"x N  .F.K 5 5 5 q 3 8 3 6 9 o } C X @ 4 @ : : < @ 6 u B / @ 7 < , < $ 3 < , 2 9 z.+.u 6 6 6 = ! @.$ 3 < 7 8 5 $ < 3 < Z M.R j ",
"8 4 & ;.z 7 q q 8 8 9 9 7 7 6 D t.C d d g N I A Z I D / B : > 1 2 2 2 $ < < + x y.8.! J C J 4.M.k 1 3 3 1 1 < 8 3 7 @ } K < 4 ",
"8 9 1 ( x 5 9 7 8 5 9 8 * t 3 t s.v.! B k j k 9 4 : 4 Z u , 2 $ $ $ @ 4 : : 6 } Z 5 4 7 8 4 i i.t 5 < 5 5 5 4 4 7 4 6 ! 6 5 8 ",
"5 7 4 R M < 7 9 9 5 9 7 * 7 q * p.L & o < $ @ 4 4 4 4 O.t , : 4 < 2 < : 4 < W k 4 5 7 9 8 9 # ! k @ 7 3 < < 8 2 4 < v j 4 5 8 ",
"8 7 8 R R 4 q 9 9 9 9 9 8 9 < J =.$ @ 4 4 7 4 7 1 < d =.4 < < < 2 < 2 < & I V 4 6 7 6 7 9 7 5 Z I < 7 3 3 1 1 5 5 < D 9 4 6 9 ",
"5 w @ _ s.9 7 * 3 5 7 9 8 4 9 $.d @ 7 4 7 7 < < < @ D ^ X , < 4 , < @ + K ` 6 7 7 6 9 7 7 7 5 s <.t & 3 < 5 1 4 $ x ;.= 4 9 4 ",
"7 4 4 5.H.6.M i t 9 8 4 5 = T U + 7 4 : 4 4 4 4 4 4 -.k : < @ @ * t V ! a.K $ q 8 8 8 9 5 9 4 6 p.>.H g f 5 @ : e 7.N.( x 5 4 ",
"y N 6.3.B u s f f x C k k ! i.t 4 4 : 6 : 4 4 < < n a.o @ 8 j D Q Q V Z =.{ & 7 8 9 9 4 9 7 4 ~ I 6 d k V ( } ` ;.U i Z ( ' J ",
"t.F.` & : < 7 2 $ 5 6 f S -.p.$ 4 4 4 < 4 4 < 4 : / p.M D E C k 8 < @ $ 8 W Z @ 5 5 4 9 5 4 D V 1 9 9 4 % n m.w.$ X X X $ 8 A ",
"g 7.g : 7 & 5 < 4 8 < 4 + - } t : 4 7 < 4 4 7 4 @ / ..B 9 $ & # 4 4 4 2 < 4 } $.h 6 9 7 f Q g = 5 5 8 8 8 * 6.n ; : 1 , ; > ; ",
"@ t Y 5 < 4 5 $ 4 4 4 5 < $ f g > 4 4 < 4 < 2 2 N I 4 4 : 8 4 1 4 4 7 < 4 4 g N.>.Z Z  .l.[ & 6 q 8 8 e 7 d :., ; , , , < < < ",
"< + x V < 8 < 5 4 7 4 4 4 4 u Q 2 < 1 4 < 7 # x U 4 7 : 5 < 5 7 4 4 4 5 : : D 3.u 9 9 p %.! 4 7 9 5 8 7 4 U / + < < < < < , < ",
"$ ; ; J u 4 < 7 4 5 < < < # o 6.v $ 3 7 4 @ z ` 6 : 2 7 < < 7 < 7 4 4 < d u $.n 4 w 6 5 M <.& 6 8 8 5 9 5 >.x < < , , < : < , ",
"$ < ; t } y 4 5 9 9 9 f j k I S.r.& : 7 < i Y 6 < 7 7 7 , < 4 2 2 4 @ : 4 ' s.b k g n D $.n.B 4 8 9 5 4 m g.s s , ; < , < , < ",
", + : X @.B.;.( T ' R R ` a.G.u.| ! 9 $ 6 U 7 2 4 6 : @ 6 f 6 4 4 o u D [ a.;.K V g f s 9 B ' 5 9 9 5 < | z.s 7 , , < : < , < ",
"2 < @ + 1.t.B 9 8 7 1 4 6 M ;.%.D b } 6 Z h ; 3 U ! = I ( +.;.<.| :.1.( V 9 & @ , 4 : < 4 X g d 5 8 5 9 a.S.f + , < < < , < , ",
"< $ 4 6 0.p K 9 4 < 7 4 4 @ Z 2.D ] } =.! & r } ;.6 d x 5 & 6 Q k.8.6 @ $ < : 4 4 , 8 , 7 < 4 V 5 6 < T { Y T @ , , < , < , , ",
"$ < . +.;.9 w 4 4 < < 4 4 @ D ] d 6 6 g [ } 9.Z.+.@ < 2 < 1 4 X &.^ + 1 1 3 7 $ * 4 < 1 $ 7 < Z f : j R i 9 a C ; > , < , < , ",
"> + t b.C @ 4 4 4 < < 4 4 4 U M @ : 7 : < n } S.;.@ 7 4 < < 7 < ' Y + < < 3 < 4 4 $ < 7 : 4 $ x ,.B  .p u d d D ` O : < # $ 2 ",
"> . ..h.6 2 < 4 < & 2 1 4 4 U 9 4 4 4 0 5 + & T r.6 4 < 5 < 7 $ U ;.@ 7 < 4 1 < < 5 3 < 1 4 @ z C.H.%.6 d f b ..F.T + + , < $ ",
"+ i t.M.I @ 7 1 7 5 < 7 4 w D 4 4 4 4 4 4 7 @ 4 -.Z @ 4 < < 4 d K p.5 $ < 1 5 1 < 7 < 4 $ $ g ,.T 5.x.} K Z ! } :.p.A + , > , ",
"$ ' H L 2.g @ 7 < 4 7 < @ V D @ 7 : 4 4 < 7 7 @ n =.4 4 4 7 w g ) m.t < < , 1 7 7 @ $ 8 9 x S 8 : & 7.4.g 4 7 : # 6 ( V X > 3 ",
"L S > @ 6 [ M : 4 < 7 4 $ Z M : 4 2 4 4 4 4 4 4 # 8.z < 8 : h y e.l.` < @ 7 < < $ 5 f M z 7 4 < < $ +.g : 7 4 7 7 4 # / ! X X ",
"M $ 7 7 4 4 ! Z & 4 1 < & ! d < 4 4 4 < < & 8 $ 1 1.J < < 8 8 / 2.b V V 5 @ @ : i J x 4 5 < 4 4 4 r ( + 7 2 4 4 > 4 4 $ =.7. .",
"8 4 < 4 9 7 5 Z J 7 5 w Y / 4 4 7 4 7 6 4 < 8 $ 9 p.n < 4 : 9 ;.9 & @ d ! u g A M t < 4 < 7 8 7 4 M u & 5 4 7 4 6 4 4 : r M.e."
};
