/* XPM */
static char *portal1678218954[] = {
/* columns rows colors chars-per-pixel */
"64 64 256 2 ",
"   c #010101",
".  c #0A0101",
"X  c #0C0D06",
"o  c #02010A",
"O  c #0D0D0D",
"+  c #070807",
"@  c #110D0C",
"#  c #130A08",
"$  c #0C1303",
"%  c #081109",
"&  c #15170B",
"*  c #0D0C12",
"=  c #060813",
"-  c #130D13",
";  c #181A17",
":  c #0E1614",
">  c #1A2218",
",  c #15260D",
"<  c #242A19",
"1  c #293417",
"2  c #333512",
"3  c #1D2C29",
"4  c #292A28",
"5  c #2B3729",
"6  c #343632",
"7  c #221E13",
"8  c #423829",
"9  c #374818",
"0  c #3C4826",
"q  c #3A4438",
"w  c #355028",
"e  c #037C3C",
"r  c #067B39",
"t  c #097D34",
"y  c #35712E",
"u  c #4D5D1E",
"i  c #454A3A",
"p  c #495738",
"a  c #495128",
"s  c #576E2E",
"d  c #667936",
"f  c #67742C",
"g  c #5F731B",
"h  c #3A524A",
"j  c #017D42",
"k  c #027C4A",
"l  c #087A44",
"z  c #107F4C",
"x  c #495648",
"c  c #4E554A",
"v  c #4B6346",
"b  c #5A684D",
"n  c #566955",
"m  c #577754",
"M  c #51734C",
"N  c #666A54",
"B  c #6A7958",
"V  c #757A56",
"C  c #6C6C4B",
"Z  c #6D7B64",
"A  c #615E4B",
"S  c #0D843E",
"D  c #068439",
"F  c #1C8A3E",
"G  c #17863C",
"H  c #19943B",
"J  c #389926",
"K  c #238B3C",
"L  c #288C38",
"P  c #29933B",
"I  c #389A37",
"U  c #329132",
"Y  c #39A23B",
"T  c #35A225",
"R  c #2B9817",
"E  c #489B2A",
"W  c #479D39",
"Q  c #539E32",
"!  c #728935",
"~  c #46A32B",
"^  c #4BA535",
"/  c #43A43B",
"(  c #4CA43C",
")  c #49A93A",
"_  c #52AC3C",
"`  c #58A839",
"'  c #53B034",
"]  c #67AD3A",
"[  c #6AB238",
"{  c #73B33A",
"}  c #72AE2E",
"|  c #5FAC19",
" . c #73C13D",
".. c #038243",
"X. c #0C8444",
"o. c #02834A",
"O. c #0C8848",
"+. c #138543",
"@. c #148A44",
"#. c #1B8B44",
"$. c #13854A",
"%. c #1C8D4B",
"&. c #198648",
"*. c #1D9246",
"=. c #128B52",
"-. c #238C44",
";. c #288C48",
":. c #249244",
">. c #2C9343",
",. c #2B934B",
"<. c #269549",
"1. c #339443",
"2. c #359A45",
"3. c #3C9D45",
"4. c #33944B",
"5. c #34994B",
"6. c #3B9C4B",
"7. c #3A9546",
"8. c #289551",
"9. c #359951",
"0. c #318B48",
"q. c #3DA243",
"w. c #3BA449",
"e. c #34A150",
"r. c #57854B",
"t. c #439D45",
"y. c #489B49",
"u. c #549C49",
"i. c #598857",
"p. c #4A9D54",
"a. c #559652",
"s. c #68874D",
"d. c #658559",
"f. c #758858",
"g. c #689756",
"h. c #6E944B",
"j. c #44A243",
"k. c #4CA444",
"l. c #44A34B",
"z. c #4CA44B",
"x. c #4AAA48",
"c. c #52A444",
"v. c #5AA445",
"b. c #53AB45",
"n. c #5BAC45",
"m. c #53A44B",
"M. c #5CA64C",
"N. c #54AB4B",
"B. c #5CAC4B",
"V. c #5DB24C",
"C. c #58B147",
"Z. c #48A352",
"A. c #54AC52",
"S. c #5BAC53",
"D. c #54A556",
"F. c #5CB254",
"G. c #42B04F",
"H. c #63AC44",
"J. c #6BAD44",
"K. c #62AD4B",
"L. c #6BAD4C",
"P. c #64A54B",
"I. c #75AD47",
"U. c #63B24C",
"Y. c #6BB44B",
"T. c #68B447",
"R. c #74B243",
"E. c #73B44C",
"W. c #7BB34C",
"Q. c #7BBA4C",
"!. c #77B947",
"~. c #64AC53",
"^. c #69A956",
"/. c #76AD55",
"(. c #63B352",
"). c #69B754",
"_. c #73B552",
"`. c #7AB855",
"'. c #579462",
"]. c #6B8D63",
"[. c #7BA364",
"{. c #7BC252",
"}. c #4BC649",
"|. c #829939",
" X c #88BA3B",
".X c #8EB435",
"XX c #9CC738",
"oX c #90C431",
"OX c #A4C73A",
"+X c #B0D13A",
"@X c #B7E73D",
"#X c #879B5A",
"$X c #899653",
"%X c #87BB49",
"&X c #98B949",
"*X c #88A75A",
"=X c #8CBC53",
"-X c #85BA55",
";X c #96B956",
":X c #90A94E",
">X c #A4BB5A",
",X c #A2B752",
"<X c #8C966A",
"1X c #9AB466",
"2X c #93A869",
"3X c #AAB867",
"4X c #89C44B",
"5X c #93C34D",
"6X c #99C648",
"7X c #8CC356",
"8X c #93C253",
"9X c #99C856",
"0X c #91D453",
"qX c #A3CB4D",
"wX c #ABCB4B",
"eX c #A5C648",
"rX c #B3CC4A",
"tX c #B5D449",
"yX c #A3CB54",
"uX c #ABCC53",
"iX c #ACCC5B",
"pX c #A7C757",
"aX c #B6CC59",
"sX c #ACD35A",
"dX c #A8D354",
"fX c #B4D253",
"gX c #BBD454",
"hX c #B5D45A",
"jX c #BCD55A",
"kX c #BDDB5B",
"lX c #B9DC54",
"zX c #ACD246",
"xX c #BBE54A",
"cX c #B9E559",
"vX c #AEE95B",
"bX c #94C76A",
"nX c #A8C960",
"mX c #B6D861",
"MX c #B1CC68",
"NX c #BBEA60",
"BX c #C1D949",
"VX c #C3D554",
"CX c #C3D45B",
"ZX c #C8DA58",
"AX c #D3DB56",
"SX c #C4CE55",
"DX c #C6E759",
"FX c #CFEC59",
"GX c #E3E559",
"HX c #C5DB61",
"JX c #D5DF62",
"KX c #C5E463",
"LX c #D5EE64",
"PX c #E9E260",
"IX c #C1CD89",
"UX c #D5E58D",
/* pixels */
"; - O O O O O O O O O O O O O O + * O O * O O O @ O = : @ @ * * * * O * % O * O * O * O O O + - O O O O O O O O O O O O + O - ; ",
"                                +                                           o                                                   ",
"O                                                           o         o                                                       O ",
"O                                       +     o o         +         o                                                         O ",
"O                                     +                                 o         +                                           O ",
"O                               o         +             & & & & 0 9 a u a X +                                                 O ",
"O                                                   % ! ,X7 6 pXqXOXeXb N ;X|.p                                               O ",
"O                                         , $X! 8 ! 9XoXyXn Z zX;X*XeXv x tXcXxX; +                                           O ",
"O                           o         X s 3X<X9X0X .'.6 r.R  XOX2X* s..X$X>X.XXXDX, o $ o   . +           o                   O ",
"O               o         +         < cXtXi 5 I 2.W C < 2X{ `.Y.} q   aX$XpXc V lX4X0 h I y 0 1 7   o   + .                   O ",
"O               o       o     o   $ FXkXpX#Xb.j.!.hX6Xc B ] (._ Y m v ).] OXx 6 pXOX<XN %XB.).vXKX;Xp $     o                 O ",
"O                 +         + O ; Z >XE m   i.E %X(.^ m [.%X5X8X_.I E y.U E Q f.,XzXOXoXHXaXJ.`   > LXg     o                 O ",
"O                       o . g zXc   m R ~.s.^.b.b.N.-X[ H._.6XHX6X7XH.p.p v ^ M '.%X=X/ ] yXiXQ.b a kX; = +                   O ",
"O                 o       a IXlX[.g._ ^ m i _ C.n.).H.).E.k.@.6.L.7XeX;X  + ( J ( ( m.5 i.~ yXHXeXV *X:Xf.d                   O ",
"O                 +   < 1 b h W.~ T P.( d.O g.` v.z.8XaXjXuXz.I.3.j -.P.9X7Xn.A.K.J.` c i.^ _.{ 9Xv #X3X  UX2                 O ",
"O                   0 LX0Xn.j.q.N./.F.N.( z.b.e.>.uXDXBXsX9XAXGXCXL.3.*.L &XVXyX,.*.D.^ ^ v.v v / } XX>Xw 2XxX%               O ",
"O     o     o     > FX{.I x._ [ %X_.K.~.x.~.6X7XsXSXW.P.iXHX9XL.y.u.7X9XqXjXjXgX=X,.D >.B._ b.^._ w.`.,X) 6XlX$ +   o         * ",
"O     +     o o   2 dXm g.} oXB B T C.m.Y 6XGXVXJ.<...l L k.%.r k D D &.-.m.9XlXGX8XD e $.u.r.i.n._ x.(.m.9XhX4 %             O ",
"*         +     o ; '.+ V C d.M '.[ m.l.aXAX7X4.e j k 5.=XY.%X4XP.6.7.3.u.:...z.-X8X9X!.e y.  + a.( b.C.m.b.iXjX|.$ o       + O ",
"*   o           y }.%X$X;X. ; Q [ jXpXiX&Xy.=.j j.=XW.jXZXiXjXaXjXfXsXjXCXCXR.r ;.%.P yX%XG N 4 g.@ s.) N.J P.0 FXp   +   +   @ ",
"O             : 0XF.eXXXE h . iXBXjXJX-X..j r ~.ZXGXVX%XS 2.DXkXVXaXuXwXCXsX8Xm.:.n.;.e iX_.t ^ J.p g.^ M.s.i.i.B <     .   + O ",
"O     o       |.FXuXE.-X{.,X>X6XJ.m.W S D O.C.6Xe.Q.:.k K 9X=Xu.>.7XgXnXR.MXm.O.&.G.W.%.G nXP $.F.~ _ v.F.    u.+ o   .       * ",
"O     o   o $ CX,X( p.# iXOX X9.e O.e %.E.~.W.@.j O.&.&.y.y.l @.y.uXQ.e e -.P o.P ~.T./ j j.B.$.S.B.K._ / 5   /.s $           * ",
"O       +   1 N ; J g.V yX_.b.-.%.e &.gX_.t.>.O.;.-.-.:.+.k k.AXGXKX%XL.~.v.S.G %.z._.A.z y.M.I T.C.B.~.) P.4 4 bXr.      o   X ",
"O o     +   a 1Xd.] n.XXC.N.j.$.$.u.lX=Xt $.+.%.:.#.&.+.$.S J.Q.P.1.=XPXgXZXCXw.k @.w.N.K 2.4.-.J.U.C.n.B.) B.d.v +   +       - ",
"@         . w {.R.4XR.pXA.U.0.@.L KXVX+.o.G 9.n.>.&.5./ 3.Z.@.o...e P 9XCXdXhX5XF G 8.#.2.<.&.#.5.Y.n.S.B.n.n.^ U 3 :   o     @ ",
"#   +       s }.I.9X9X;Xx.n.N.Y Z.CXt.e 3.( Y.T.t.m.(.' y.5.K X.X.*.j r Q.gXrXCXz.r >.4.t.,.r N.e.k.K.H.B.U.b.n.' 0XhX.   +   * ",
"@       + + w 0X8XtXyXB.N.S.).S H.sX@.X.x.`.j.t.E.9.D o.D ^.z.l.qXpX_.X.e bXjXCX%Xk y.L.k.1.r K.`.Y V.H.n.B.S.K.G.F.DX1       * ",
"O   o       s 7XdXgX=Xz.K.C.7.k &X5Xj ;.V.z.X.8.O.P y.y.8XZXVX%Xj.k.c.L O.K uXhXpX#.-.^.c.G.X.>.I.v.Z.D.U.B.S.x.Q x.0X:X      @ ",
"*         + h.{.jXiXH.A.U.j.S &.9XN.o.N.!.y.&.l >.CXjXuXCXwXgX=X_.-XO.G ;.j H.gXjXyX;.P N.A.;.-.4.Z.A.q.(.H.C.P.d.( K.cX: +   * ",
"O           bXC.=XqXB.V.V.&.X.k.8XS c.!.I -.$.P tXmXpXmXCXfX=Xy.L.SX2.l -.j P aXqXhXp.t x.S.5.P ..H n.( N.n./ g.  D.` xX<   . * ",
"$         a yXY Y 6X_.B.c.&.S t.2.5.`.U.G.&...t.ZXgXuXJ.N.gX%Xk j.JXtXe.l m.8XhXhXj.@.z c.N.,.6.0.F t.D.y.(.v.K.B D._ dXp   o $ ",
"*         ! ] m 5 eXn.F.5.@.L %.O.m.l.x.F.;.#.+.3.nX6Xr j %XGXB.@._.Y.P k p.lXiXVXB...4.U.j.L G.4.S.4.k.y.F.A.H.~ _ D.%X&X    @ ",
"O         s ] g.. *X^ b.-.G Z.4.&.F K ` B.%.#.;.j v.JX*.%.AXHXW.,.<.F.F +.L.uXwXZXB.e B.).%.P M.X.%XB.@.y.T.C.K.V.l.H.cXf o   - ",
"-     o   s ~.!.MX/.z.K.+.2.N.-.%.F 3.).z.&.F *.&.-.%X8X9.v.9XhXVXiXCX9XQ.wXiXZXyXl <.R.Y.2.,.3.r `.P.e p.J.T.b.b.E.9XKX>   o X ",
"O     + . f L.K.eXU.N.K.5.3.k.@.+.4.Y.(.,.G *.G t.L k 6.-.l c.VXiXhXAX7X#.`.JX8X&.X.] B.D.R.1.O.o.R.W.o.n.V.n.A.c.0XDX&Xo     % ",
"O   +     a 0X!.aXH.x.V.N.U.p.F &.5.T.n.l.-.=.-.;.w.#.8.^.r Z.AXVXrXZ.%./.9X( k $.B.m.#.V.~.%.G &.S.=XG F.H.A.M.b.7XFXa       * ",
"*         * cX{ qX4Xn.U.n.T.D.G #.@.b.] _.y.S @.X.z.u.e `.L.@.v.c.#.%.E.P.X...P z.j.o.5.Y.9.r N.4.N.8Xw.F.b.m.4XT.qXCX+ +   o X ",
"X .         $X].f.}  XR.N.V.V.<.@.$.l.T.U.K.j.5.%.K T.7.j 2.F ..o.@.1.*.e +.:.6.2.&.I C.;.X.x.M.K SX~.y.n.) Q.qX*XDXd         @ ",
"O   o       7 MXq i 2X] x.n.~.c.#.$.K (.l.N.!.U.%.X.m.Y.6.2.<.+.K @.$.#.6.t.y.3.6.q.(.t.S ,.D.W mX=X>.Y.b.' aX5X< 2X1   +     * ",
"O   o     o   g IXq + P.Y H.C.).n.%.+.:.%.' L.U.2.S %.l.!.Q.S.>.&.K G.B.z.,.;.>.j.t.*.%.+.j -.JXiXH b.b.s.; 1XoX5 n + o       - ",
"$         o   + 9 2X  3 ~ n.n.B.).7.#.@.S y._.~.F.1.t %.>.z.T.U.U.W.T.5.r G M.U.%.G F D ;.m.fX5XX.6.( ~ 1X< >XdX,X&   +       O ",
"-           o o = &X= - ;XM.x._ L.~ D +.,.:.x.Y.E.).I X.O.#.K >.l.5.r l Z.0XR.t.l o.k D.jXAX/.W H.` m 2X+X&XoXKX< +           @ ",
"*     o         s 3X>XeXfX] i.5 _ P.5.D ^.~.D W y.l.F.Z.-.#.@.l o.,.L.m.7.5.j l q.n.5XCX8Xm.Z.{.^ g.  a } J J.KXpX$   o o     * ",
"@       + o     u <XpXzXsX' i.q g.o 4 r K.fX$...=.@.L 7.,.@.>._.&XdXqXz.k j Z.hXAX-X~.J.J.`.E.z.' OX*   ].h #X.XFX; +   +     * ",
"$               s.cX=XJ.MXY.( ~ g.    &.G ZXE.X.G ;.-.>.-.%.:.B.M.,.X.,.g.%XhXwX5.e S 2.V.n.U.{ V C h.r.c + #X& $ o   o       X ",
"O o           o u LX5Xk.Y.4X_ n.x.B.^.B.K 7XPX/.j ..+.5.z.k.y.5.%.G <.m.J.v.).z.0.,.@.P.9XuXrXaXf.M R ~ y.g.zX=X            o O ",
"*     +           sXDX-Xc.uX_.m.c.i.g._ C.H.iXBXJ.`.A.e ..+.-.*.F O.k e j e _.AXVX9X6XzXfXuXhXaXXX!.U.j.) 6XKX!               O ",
"O                 > xXf.+ *X X` { M m k._ W x.9XZXZXBX4XW a.9.+.&.k.!.7X9XqXiXQ.9XrXiX;XeXsX=X5XfXsX^.P.sXFXw                 O ",
"O                   f UX> bXg.b wX[ I E m 5 / ( 7XrXiX>XnXjXwXR.w._.7XY._.4XC.w.=XSX:X. V ' q..XXX:Xc s.& & o +               O ",
"O                   o .Xd d ;X<XqXfX9X^ a.n M.b.M._ ( o   L.~ A.Q.n.N.Q.=XQ.R.M.J.&X5Xm m Y %XA N 6X;Xa     .                 O ",
"O                     =   2 cX. 4 6XaXkX!.E y.^ r.b ' d.m N.R.9XyXP.n.Q.[ ` V.N.x.j.g.n E..X<X  x +X< o   o                   O ",
"O                 + . o $ kXcXi - Y.c.4XgXiX!._ a.f.+XOX.XwXrXeXF./ b.k.M x [ 4XU.~ f.+ f.XX,X1XdXLX>   + o +                 O ",
"O               o       o & ! xXlXyXY.2.T.8 $XE u.: 5 5X5X2X4 N ] 4X9XqX$XN 3X9X] k.A.i.-XiXqXXXlX9 +                         O ",
"O               o   o   +     1 &XcXDXuX' g.c f.{ r.M c.I E.> x zXtXyX&X*X  q I l.] - i 6XgXDX2 +       o     .               O ",
"O                 .       + o     < s &XfXuXB <XDXeX[ C.x.| f.; [.` ` Q /.2X0X{.dXmXMXxXcX%Xd o   +                           O ",
"O                                       + X > 1 s &XDXmX5 b OXsXuXtXZ b rX! f |.&X:X$Xd 1     o                               O ",
"O                                                   > 0 > q |.wX! u 4 > 0     + o                                             O ",
"O                                         o       o o   & & 1 s < % O $ @   +                                                 O ",
"O                                                       + .   + + o o       o             o o                                 O ",
"O                                                 o +   o o       o       +                                                   O ",
"O                                                         o       o     o             +                                       O ",
"+                                                     o       o         o   o                                                   ",
"; O O O O O O O O O O O O O O O O O O - + O * * $ * - O O O @ @ * O O O * X X O O O O O O O O * O O O O O O O O O O O O O O - ; "
};
