/* XPM */
static char *S1678213126[] = {
/* columns rows colors chars-per-pixel */
"63 63 117 2 ",
"   c #382F1E",
".  c #3A2F21",
"X  c #3D3324",
"o  c #3E3429",
"O  c #423626",
"+  c #443A27",
"@  c #493A27",
"#  c #41362A",
"$  c #453B2B",
"%  c #4A3E2D",
"&  c #463B31",
"*  c #4A3E32",
"=  c #4B412E",
"-  c #51452F",
";  c #474131",
":  c #4D4333",
">  c #4E4439",
",  c #4F493A",
"<  c #514534",
"1  c #544936",
"2  c #594C36",
"3  c #524639",
"4  c #554B3B",
"5  c #594D3C",
"6  c #57503D",
"7  c #5C513E",
"8  c #62543E",
"9  c #554B41",
"0  c #5C4F41",
"q  c #575144",
"w  c #5D5342",
"e  c #5F5846",
"r  c #5E564A",
"t  c #5F5A49",
"y  c #615544",
"u  c #645945",
"i  c #695C46",
"p  c #615649",
"a  c #655B4A",
"s  c #695E4C",
"d  c #705F4B",
"f  c #665E52",
"g  c #6A5E51",
"h  c #66604D",
"j  c #6C624D",
"k  c #71654E",
"l  c #73684E",
"z  c #786A4E",
"x  c #676050",
"c  c #6D6452",
"v  c #6F6855",
"b  c #6E6458",
"n  c #726653",
"m  c #786753",
"M  c #746955",
"N  c #7A6C55",
"B  c #726758",
"V  c #756B59",
"C  c #7A6D5A",
"Z  c #7D7156",
"A  c #767058",
"S  c #7D725C",
"D  c #7F785E",
"F  c #777060",
"G  c #7D7462",
"H  c #7F7A67",
"J  c #827257",
"K  c #82755D",
"L  c #897658",
"P  c #85795E",
"I  c #897A5E",
"U  c #827562",
"Y  c #887763",
"T  c #857A64",
"R  c #8A7D64",
"E  c #847B6A",
"W  c #8B7E69",
"Q  c #917E65",
"!  c #858166",
"~  c #8E8166",
"^  c #85806B",
"/  c #8C826C",
"(  c #928366",
")  c #988567",
"_  c #93846C",
"`  c #9A866C",
"'  c #96896E",
"]  c #9A8B6E",
"[  c #8D8471",
"{  c #8F8C76",
"}  c #938672",
"|  c #958A73",
" . c #9B8C73",
".. c #948E7A",
"X. c #9B8E79",
"o. c #969276",
"O. c #9D9176",
"+. c #94927A",
"@. c #9C947B",
"#. c #A38C6D",
"$. c #A0906F",
"%. c #A28D73",
"&. c #A18E78",
"*. c #A39375",
"=. c #AA9576",
"-. c #A99876",
";. c #A3947B",
":. c #A9947A",
">. c #A59A7C",
",. c #AA9A7C",
"<. c #9E9582",
"1. c #A39781",
"2. c #A29A82",
"3. c #AB9B82",
"4. c #A79F8A",
"5. c #AA9F89",
"6. c #B5A689",
/* pixels */
"i ;.~ ( } _ W } _ } X.p y G A ^ { E E G E V n N &.;.;.&.&.X.X.%. ._ 0 U X.%.] X.&.%.O.a C  .} } } G F p G _ Q ` _ _ _ W W n n ",
"a } V c M v n n M n U 4 6 W H F v V v c c n S | ,.&.&.;.%.*.>.*.,.' 4 V &.%.&.@.%.%.*.u S o.|  .| V A r V  .} ` _ ` ] ] W n n ",
"w E v v v M B B V v A 1 4 V T M N n S [ S W ! [ ;.:.;.;.,.O. .O. .} 4 a 3.&.&.&. .*.X.5 B o.O.| [ A A e C  .` ) _ ` _ ` _ m n ",
"5 S n B M v l M v v v ; 6 F G A } W W @.! S M v S U T T S C M C V A 6 r W  .:.&.&.*.@.w a U _ o.X.T V r M  ._ | _ _ `  ._ B n ",
"1 B B V A F v v V A x : h V V A G T M M A c V V B v B B B C F b B B r a m U W  .X. .} 9 * g G [ | E F p s W C W T W _ / T B n ",
"% q > 4 9 9 , , 6 h , , V v V v n n c e v v a 9 4 9 > 3 4 > & * % 9 : 1 < * $ * % 1 p 3 # O % > : > r f 0 n s a e e a n k n n ",
"W T a q q q t h S G c h V M h G G S v w v v $ X o 4 a a 8 p h N J Y Q W M B n * 5 5 4 s f q $ o 2 g r e g s s G c u u K R ] _ ",
">.>.P M M A T / o... .<.^ w 6 <.@.+.+.@.| G p o i @.,.I R ;.:.*.:.:.&.Q m N E y V / C B V C p , W C C v N N V n B a j ;.3.,.=.",
"*.=.,.j a / | E | | | ..@.x 4 ..@.@.o.@.@.G B , K } X.` %.%.#.%.W T S M j V C w S V M M n V c 5 S j M M v B v B v e u 3.*.,.>.",
"*.,.,.m M o.| W |  .|  .| x q V ! o.@.o.+.D M q s n ~ :.%.%.%. .S j k c V v n p Z M l B V n h 5 S n M B M v V v A 4 C ,.-.:.;.",
"*.-. .i M  .~ W { | [ S E V 4 C l D o.+.@.A V 6 y m K ' %.X.*.;.} n c V M v V 5 V V v B B B c , V M v M B l M n V % N 3.:.,.:.",
"@.( M 4 c { | } E { { A G C % n A v V ! G M v 4 u C B C N T W S T } S B v A B 5 j B M B V V v 7 n M B M V V M V g + C 6.-.3.;.",
"h u e ; > 9 5 0 4 w 0 p a c * % h B B p a a V , i C p y p u u s j K c a s a a c j B j h h a a c j c a 3 5 y y y % . p n z n n ",
"> : 0 * & w 8 5 8 y 5 * O r g a h 4 < p s 4 > 4 n s 1 0 5 + % g 8 2 < O 4 4 u C V a 7 2 4 u c V n S U a s n 0 * 9 q 3 : % * * ",
"S Z S 5 7 ( %.:.%.%.%.8 v ..<.@.E n < V V W M U _ X.| <.1.C m 5.>.1.S ; B A V C T T | | S U U E ] &.5.&.1.:. .Q V n U ] Y C V ",
" .] *.k d =.#.#.#.#.%.% S 2.@.O.V h 7 M m | ' *.%.*.;._ S a J 3.@.1.i , C B n n n n n G C U j n n N Y _ `  .;.*.T 8  . .#. .] ",
"#.$.&.d n  .` %.#.%.` % b <.@.@.C f q v M | &.%.@.} U } U y s W _ | j : V n B M M M v c V T n n c B c v B C C } _ 2 &.] $.] ] ",
"#.` :.m y Q L ` #.#. .< p { >.@.C c w M M _ >.` U K j C E 5 S 5.@.G e 4 V B v v M M M M M C n B M M M M j n M N Q 8 ] ] $.#.) ",
"] *. .a 2 Q L R #.*. .1 y K +.2./ u p M C @.;.] n M n V j > U U v b w > v C B M V v M B V V n n n M M v V M n m E a _  . .$.%.",
"W U J g * 0 s n J R n O 4 h C E G i y j S ~ T W V v v c e + 4 = 4 a r o : q p a r a u w a b V v B n B b v c c g p & p C T K K ",
"@ 7 < 4 * O # o O % # O o ; o ; % : q 7 5 5 2 c B c v c j x p 4 = % > 4 y 5 1 + , e 5 1 7 i a y 5 6 4 % ; : < 1 * % < : = : : ",
"n | | W E C j < B m C E V A H ^ H B x w w 4 * g v 6 a S S V a h S m M C T | } n 1 N R  .:. .~ ' K R T G a V } | ] &. .` | ' C ",
"C R R ' 1. .i 4 C T W C D { +.{ +...q a E V 4 4 V c n M n a = 1 M M M B n n V c < C U  .( L K ( ~ m B M 2 / ;.Z z T W P _ ;. .",
"C U C C G _ p 9 C c B n F S ^ <.{ +.h 6 p g s p V M M n n u 4 a B v v v B B B c * C V S c c c v B B c 4 $ [ R S v c B j S  .` ",
"n U C N Z T 4 5 B M V A H l A +.+.+.t , c a j n n B B v B V a q M V n V n V B n % s B n C S N K C u 4 ; + | U v M n B M S C V ",
"0 U U K U U * 4 V B c p V V F H ^ { h + ; : 5 a V v M B M A h 4 n n V n n n B n + 3 s U / W C C C V c > $ U | V B V v M B n N ",
"$ * 0 s u 2 3 3 : & O X $ : : $ ; e 4 o 7 f a p 5 5 w w 1 7 w u a 1 < : * + % * & . $ * : * : < 4 ; $ $ O $ = > < : % ; : : 1 ",
"a i J m K S S u 8 p i j c M V M C j 0 4 c e ; h G S N M V S S / } u a s j a i n p r 4 0 c c i h 7 7 : o 0 J k i p a a u y y s ",
"L z ( K Q :.~ z z P R P S Z Z Z N K n u G S 6 M M M V M M M n S W p n C C V V E E y 1 V A W T C M V V % U ;.&.} R ( ) O.] ] ] ",
"S j S m N R ) z 8 h M N M Z V N N N s 8 C Z 7 l M B M M n V M M n 4 c V n n n n B h 1 C l B c S S v A 4 m J N K I L I I ~ ) ( ",
"i n G n Z Z ' R h 8 V N Z N V M N N s i S V 7 M v M v M j v B B n 4 p V B V M n V u : M B V v v A A n 0 u J z N M N N N N N N ",
"a i S Z M M Z ) j 8 Z M N M N m N N i a S B e V v M v M V v v M C 1 4 n V n M n V a < B B v B B n B V 3 i N N V M Z V M V m N ",
"i e C C N N z Z u j Z Z M N Z N M P 7 h K k w V v V v V n V B M A 4 > B B B M M V h $ q c V B V M B V 4 n S N N C N N N z N C ",
"h % p N M n V M 6 u c B B j M j B p = 7 a : * p c v v v s c B B h + : B B n j c b c @ X + 4 q w w e n : 2 M n j j M n N V n V ",
"n 2 < 7 7 2 1 < < 1 : $ + < u w 4 1 $ $ + $ & & = ; ; : : $ = = ; @ $ 1 * < = < < 5 = : : % : : % + O ; @ < 1 ; $ $ $ 2 8 2 7 ",
"` %.*.#.*. .z j ~ X.' U 1 @.4.2.@.@.+.+...@.W F v a c G T w y M s V U U < 7 n k l P _  .| ~ T C F v > V F S A a q ; 7 j N K C ",
") ) ) ~ I R i k ] T / T i 2.<.<.+.@.<.<.@.! v c c B x x v e u M N n C ' 7 m K S I _ ] R S N n k B u 4 f t t r t , , '  .R ) ` ",
"N k M z N Z w c W R / T h @.V c v v v v v h h v c c v v v w u V z k k M 2 W R } ~ S M l n n n N S 7 9 h h h t f 4 4 T R L K J ",
"V M M m V C w 7 P R @.~ a v x v v h x c v v v x c c b v c q u m l k M n 1 W S k n n B V M B B C M 7 q t t t x f 4 : V N N z z ",
"Z N Z Z N K j < N Z T / 1 x v v v c v c c c c v v c t x c 6 6 Z m V N i < M M V M V m M m N M m A t , h h t t x q ; j z k S N ",
"v n n s s a 4 $ 4 g g 5 o 4 f f h x x h h j h c p & o # $ o # 3 5 u s * $ u g s j g g a p e 4 : & + > w q r r q e 1 $ O % 1 e ",
"+ % % = 2 y s V M 8 2 8 8 2 : > 7 u w e 7 y u 7 4 7 a y 5 p y 7 * $ $ % * * * & < 2 @ O 1 4 2 5 y g y $ $ o $ : 7 q 6 q e w 5 ",
"O 0 n m m Q >.>.>.:.*.,.>.~ 7 P *.*.*.*.*.$.*.*._ _ _ ( ~ ~ P C M s i s m s P _ _ W 3 * c N C V J } >.W : $ C K G ^ / T G S A ",
"0 n C R R  .*.R N S C P ( X.2 M ] -.-.-.-.-.-.$.n j s k k k d d n k z k k k N N k n 2 4 j u i s s u M ~ a = i h p v h h h a h ",
"< S / _ ] R N k N m N m C C < p N :.=.*.*.=.3.` k k m n k m m n i 5 n n m n k m n M w 6 j i j s i c i h a : h c h h a h c h x ",
": M K N N m m C N N C N N n % u k ( -.-.-.=.( J m k k m n k k m a 4 V n n n j n N n p : a j s j h 1 4 6 q ; b h c h h c e e a ",
"O 4 n V N C B N C N M N N G < 5 k z $.*.-.*.N k m V m s n n M m 0 * u 8 u j k k 5 4 , & a j j j a y h e 4 ; f p a q 4 ; o o % ",
"* 3 4 3 < < * 4 3 3 0 4 : ; & % & & : 5 7 4 3 9 3 2 3 4 5 4 < < $ & * O & % < * O O o o 6 1 2 4 5 < $ = o o + ; & & O # o & & ",
"G s W ' T } W S S C V V 5 1 K _ R P N j k N K Z P P P T ! L N j a y g s s k C K G K W R u y 0 y i j N P U w % u y j N S ~ ~ R ",
"s 8 S } R C k c s i s v y 7 C K T K S C P R K N N N V m V V M n B B m m n N m N N N K P u n M n n ( | _  .n < c n n M M M M k ",
"c w u s u j j i h i c a y y k k k j n n n j j k k n m n k n n n m s 8 m M k k M n k j k % a N n n M k j m i : c h h h h h h c ",
"n w e i j j c h c s c s 7 8 M n n k n n n n n m j k k k l k l l m a < k M k M k n k n n % s n n n k k m M u : c h v j j h h c ",
"c 7 u c h h h j s s h c e w m n l l m k n n n k m n k n j k j k n n 2 d k k n m n m n n = h B M n n n k M s @ a j j h h j h j ",
"c 7 e j j c h c j h c n e 5 N N k M m n n M m z V m n B C N n m n a 0 m M n m M n m n 0 % a M m M n n n M a % p j c j j j j c ",
"a 4 : 5 y w u a p p w w : # 5 y a u y p u y 7 y 3 2 3 2 2 2 8 8 y % < u y p u y y s y # . 3 i i j s s d w % X $ 4 6 u p 7 w y ",
": a c M n j i 4 : % + : y a s s w 7 3 4 4 4 w M Y U L P P Y R R d y n a 5 2 4 < < a u 3 4 5 u 8 2 5 5 5 y e h e 4 % 4 i a w 3 ",
"4 W (  .X.'  .>.>.D 1 h S S W U N Z C M M m K ] ;.:.:.,.=.=.:. .N J =.=.*.) K S K S S V i u R C M n N N K ) ;.I n y n K _ X. .",
"9 a n n k j j N ] @.1 n S N k k m j k n k k k k n d d k n k d n 3 N  .Y N j n k k k k m 5 2 n n n n k n k i C P U w n k j n m ",
": j j k M k M j k h = C M M j m M k n n n n m k k M m k j n B s ; 0 m d n n n n c M M M 2 5 s n n M n n m M k k b 2 c n B m n ",
"= j m j l j m n C i + p M k V n j M n c n n n n l k j n C k 3 < ; 1 n m n C n n n n k V 4 * : 4 e c n M n j n n n : s C n n V ",
"% % > & # * * 3 5 s : O < % 3 1 @ : : 1 y a a c j M m n s 1 O O $ % a m s s a s j n M n 4 O . o X O 1 h n C V n a # y B B n a ",
"4 ; O + w p 0 2 5 a y 5 5 4 4 p 4 5 p s y y y y V i y 3 $ O # $ o @ % @ % o O O @ : 2 5 7 7 y 5 ; +   + = 1 2 8 : @ % * % 1 * ",
"W ~ 5 7 _ O.>.*.&.5. .,.X.n n n B C / X.Y S C N n j 0 p p 3 y V G U R C p * 4 B M j k S T T R P B 7 : s M n j n m M j y $ n U "
};
