/* XPM */
static char *W1678213126[] = {
/* columns rows colors chars-per-pixel */
"63 63 81 1 ",
"  c #473D2B",
". c #4A3E2D",
"X c #4A3F31",
"o c #4B412E",
"O c #4D4332",
"+ c #4F4836",
"@ c #4E4338",
"# c #514635",
"$ c #534936",
"% c #594A35",
"& c #514538",
"* c #554B3A",
"= c #594E3C",
"- c #5C513E",
"; c #61543D",
": c #564D41",
"> c #584F40",
", c #5D5342",
"< c #625644",
"1 c #645946",
"2 c #685C46",
"3 c #635749",
"4 c #655B49",
"5 c #695D4B",
"6 c #6F5F50",
"7 c #6B6146",
"8 c #6C614E",
"9 c #72644E",
"0 c #6E6351",
"q c #726653",
"w c #786757",
"e c #746955",
"r c #796C56",
"t c #736759",
"y c #766C59",
"u c #796E5A",
"i c #7A7057",
"p c #7C715D",
"a c #7E7461",
"s c #816E5B",
"d c #81745E",
"f c #82785E",
"g c #88785F",
"h c #827662",
"j c #897764",
"k c #847964",
"l c #8A7C64",
"z c #867C69",
"x c #8A7E6A",
"c c #917D65",
"v c #917E6A",
"b c #8C8267",
"n c #8C826C",
"m c #92846D",
"M c #99856F",
"N c #95896F",
"B c #8E8471",
"V c #928672",
"C c #9B8772",
"Z c #958A73",
"A c #9A8D74",
"S c #978E79",
"D c #9A8E79",
"F c #9C9276",
"G c #9D937B",
"H c #9F987C",
"J c #A18F77",
"K c #A19177",
"L c #A2957C",
"P c #A3997E",
"I c #A99A7E",
"U c #9E9580",
"Y c #9F9981",
"T c #A29681",
"R c #A49B82",
"E c #A99D83",
"W c #AB9E89",
"Q c #ADA185",
"! c #ACA28A",
"~ c #B0A285",
"^ c #B2A48A",
/* pixels */
"yt0880ytaa0aaaaanaaaapazxBZzy063,:,,,tpkBBky,38,,,004-:474,4,,4",
"YUGSSSSYHNyya000zyyahVVZUZZVpphy5enDne11*-*,kxupy40bBaiBSBBBaay",
"YFFHFFSHFFfqy0,,beeyrppbDVhnbmSGnAHFGHLAFa4uBudrayaBSFHSZFVzppa",
"RFSHSHSHLm8qyat,uanauuyuuprreyyuryhBGFGDnnq8auppt=aGNSFBZbpka80",
"YYSBBBZSZk33yq53yaky3,,,,-31,qhyyayekBn08t=&3y05@$ubSSkkhuxVu<<",
"t8,--*+-*#OXOO<=+*Oo*,<OO=* ,53058084,,&0,XOX&#.@O+-87-**,-=*#>",
":+4pBBkpuhe3==3<,,,35-<1=,1<,1,<--<805,.$-*+###,,$=-*o++=<#*,#,",
"p,HRHHHHPPRRe=<q0eeeqqqe5eeyrmFSZDSGHUm58apeq8knfaypGb7uzaaaq5p",
"t1SHLHFFHLKL5X*qqwqewq9w8qe9hGAGGJJJALx0VHpfqpDRPPHHRbeDCmmdyiz",
"e1ZHGHLFHFTZ*<083eq0qqqy<eeejDLAAAAALLp2LPAFFPRPQHLPRf2uxAmxBBD",
"1-aHGHLLHFm7&*;%*57851<3=01=2dZGGAADAl1qPFLPHLZmxhbze<.%2<5e080",
"=O=,3<50q-;%X.%;1<%#OoX&OO%<5q6yeyuy5<.,54244<*.#3><,+OO. O.oO=",
"t4-1-*1=O59s6s9ssss6<%X>513;<9<==O#=+O*1<7kp5hGa,%4pp7-$*60884,",
"FSAPAAPp=jvJJsscsjvcs;#6yywyqwqw9o5mz8bHFPRHHRTHHyr!PRNnBlNFRF0",
"^QQ~IQ^c=sCcjssCMvCJm<#3eywqewqr9#yVk8nILLLPHbfVRZ7EQQQ!EZQPQ!k",
"!~QI~~^A*uMccsgcvMMvl- O*<12555rw#tw91kNVDSZbppmT6%pR!QZVjbHHFn",
"mNLRRbb8.-115=,>;*3e,XOoO#XOOX#55$3yu,<trdpphper5OO%0xr8ureqpuq",
"u-,1<<454.#=**O=#==.*,1uaye9<-=OooO*=#.o#%-81*OOO3-OooOOoOO#=<,",
"<O*9jzkPRy;yu9pxeu5Oaxpkjuypuushheo#=**1<=%,#*,00058q0551959quq",
"zu<pihAHHS5euqpjeu1#xxuqyerwurrnZb=ebBnnkaee0e3eu09wyyqrNGVDRZk",
"hzeriNFPUG4fZ65yeu<,kuapuddwrrryup$kZbhreeqeue*7eq9iweigLIAPEfu",
"jyrrrZLLUV-ex15uup<,huZZxAVVkwurp8#hneeererqer<0reiy1qbLLLKAh-8",
"fzpy<#3e8%o%>O#<50,*65znknVVy#=30<#0auruwyyrre,%0<1*.5ujurp2=X3",
"<###=5068uhkvvx=%**OXO<<=%<<*#XX#.o*13<15551-%##@$.**OO*#o## X:",
"mu&wJLLILJILLLIjuGZlq<5dzh51=eqe8885=,*X#=#=<Oqkpwrdgrsdu+O<qqj",
"QWymPKJJLPJCJJKlhFLLPnuTLGDLuehupphupuu-mAjwr8fGACAMCFAKD;eREE^",
"ER99ACCCCxfgJLLlqLFFRdqLALAGmyyyururpyu<JILMd9wNnbAFmNbNb;9EKEE",
"QN<oquwweqqpCCb5<PLLL57LDFLGVpudduyppp8=CKLEErqeerbFbgNg829EIKW",
"n8#%#<##O+OO$+*.#5VA0O=qq811q5060q005q,&2ucju*<qerulpynu*,<ay3u",
"y07q,X#1,,--,+O*<.#*#..Oo%#..O#.#.#.&.OOX%#O=-#%=**#%#=*OOO$+O*",
"nzhpq eWEHLETFuup55p0#-1eipr-3q3,#&=0150*q*<uqwu55813*o10upphh5",
"npfhh=hQIIILFEjq8fZLVuVDHHGGiuyaku<5yeeyy*5qw99rrrrrue1mNNDAVDn",
"aupuh=eGxhdlf5<=nHHFAbPHFFFFmrirkzq8uqyqy,5pu89ldqrwwr6CZNNZZVA",
"35ee5&<eeyyjZh33SLHGPFDGGHGPDpyppk4,yyeyq,<<8uwrerrrr95xNmjzjuu",
":O#$&&&O*1356t,&O,7881,1yq11313311=$<0qe38y0=qqr8ett9--uppixatw",
">O.O&X*$& ...*%%-$ oOO$o#oO$o.XXoooO O$#,3=*.==-#+$+OO#=$,,8<==",
">=-2q3hZe-<<<-5pZp+*7yy8=18re80<O<,,1537tq-O2<==$O**Oo@=,+.X##5",
"eqqee<fZppjuqkmDHZ4rBBBn-kmnkpk4<nheaktyeyq*=5eu88ee8-+=4%.#X%s",
"aqeq<$8h9fkkqbmmbp,iBbbB5zbzzyp-8npe0eeeyqe7-uyqyqupap4%16<1w26",
"u605O.,qq9q0y89900-uzpyu3yxuueu=4hquyqyeeeqq8qeeqezSZpy8=w9w66s",
",@*$@O+4qqetqqeqe8%enbkq+0xxy43*$4yyyyy5eeu1=yqyyqykpq74=qeq840",
":O@+*+OO#-<1<5780-o*444$O$,1%#*$O#155,&#<33*-uyeeyeqeuy,#-,,,,,",
"8,,4t01%*#X&OO.#$O--$O&#+@O=-0e0135%o%&#*#*X#,508800,,7,OO+o :4",
"ay84eeyqe0<,<<0ppkBae0q0*8apeyeeeye8805=*3q6<OOooO+@O*,$O+++,00",
"aeeqeeeerq8-0pbVBZnpeapq=4yyqqqeeyeyuee>=eeyq<-14qq7tkuq05<3yy,",
"aeyqeeeeqyk-5qpmnbppepie,,yyyqyqeayq0qy*,uqqeeqqupuq0aqyqeqwey0",
"ayyeqiyyrey=8epzpeqeeeye,0q85yyqqeqeeeq#<,5uq19peqe8*0eeerr9yy0",
"58,888148e5*58eqqyy8qq4,++@oO<0qe0eeee4oO<3*,3yqeeee*8eeqyqry04",
"*@OX++o XX#X#X#*#=,OX@oO33,55,1=$***:>XXo*,O&>#*=*1,O,,8,,:,++,",
",++XOo>aqqq58qyuu> *,470aapaaap3005=X#*;,+.O*.##O-+O++oO+:8*::,",
"Zaa088SBkhdhkjhhmu;uaaupappuuupaaau*,VPRRa$-qyeeukyru0,**pzaizB",
"zaayaanudppjdupdk8#qpapuupppppuppaa#q!EEQE1-puruppiyyua8,fppiBS",
"aaaaukkpdudufpkph1o+,ynpupppupapupy%5NLEFHiOaaiyiyuupuu8*aayaaB",
"y880*,akdhhhhphay+#@++taphupapypppp*<fbhpaao,pupupypuup4o4kzyya",
"0+XOO$=4qyy0<=,1*#,=OO+==yxayyypapu*-azhbnq-,0e0yyyytye,++48+:4",
":O++OO#o##&##*-=158$-1-,*$84##*$*>*..#10p0*,q+o+++++++oOOX+o+o:",
":+OO+O+o+XOO,0V0<5=$++O+oOO+8y$,q*70,1++++  +48,,,,++++++o:+*+>",
",O@OOOooO+O=oo+$O oO+o*4taZHFuO0!pnRY!HHYSzp-eBzap+,8> +O+@+*,8",
"8O**$,803ZBBZbfbnk4o-zSHRTYHZy@*Ge8YSHHYHHYY7,-,11<8,o++@+0*O=y",
"yaayaSSF,SRGHYYHH!!4*iYHLHHHZu+o-**GYHGYHSza0ay8pkVNBt+X+o,*@tz",
"nSFibHYS$yB,8pBSHHHyo+8zGYHYSe+++ O,000aaaze,pkfaakkkb3+o+o+O+,",
"SBBpiab8+O+,87,HbBp+OX +*ySYSq++@+:++Xo++*3+o,yiaaaaaz4 @@Oo@ $",
"084,-*-->,>=,ep0*,--:,,:,*,e0,,::,,y0qt00,,48:-48yaaBa4,,=,,,aB"
};
