/* XPM */
static char *f073bc7216404db8db02a74cd4f6d4e6b4XV3RqXJT8PXar4[] = {
/* columns rows colors chars-per-pixel */
"20 20 55 1 ",
"  c None",
". c #EC0F00",
"X c #F40000",
"o c #F60600",
"O c #F80000",
"+ c #FA0000",
"@ c #FA0100",
"# c #FA0200",
"$ c #FB0200",
"% c #FB0102",
"& c #FC0000",
"* c #FD0000",
"= c #FC0001",
"- c #FE0000",
"; c #FE0100",
": c #FF0100",
"> c #FF0101",
", c #FE0200",
"< c #FF0200",
"1 c #FE0201",
"2 c #FF0301",
"3 c #FD0002",
"4 c #FE0002",
"5 c #FE0003",
"6 c #FF0103",
"7 c #F80500",
"8 c #FB0400",
"9 c #F80600",
"0 c #F90600",
"q c #F80700",
"w c #FC0500",
"e c #FD0500",
"r c #FD0600",
"t c #FC0700",
"y c #FF0600",
"u c #FD0304",
"i c #FD0006",
"p c #FD0007",
"a c #F90705",
"s c #F30A00",
"d c #F30A03",
"f c #F60800",
"g c #F40A00",
"h c #F30D00",
"j c #F40D00",
"k c #F60D00",
"l c #F10D04",
"z c #F80900",
"x c #F80807",
"c c #F80109",
"v c #FB010B",
"b c #FE0008",
"n c #FF000A",
"m c #FE030A",
"M c #EC1409",
/* pixels */
"        $44z        ",
"        644e        ",
"        444x        ",
"        4$4c        ",
"        $4e4        ",
"                    ",
"                    ",
"                    ",
".Mjle4        z48o8z",
"e64x4b        4b444e",
"4m4$4v        444444",
"dd4fyX        4z88ee",
"                    ",
"                    ",
"        e$$j        ",
"        6b4o        ",
"        $44z        ",
"        4e4f        ",
"        444f        ",
"        444l        "
};
