/* XPM */
static char *_61fd1bd70924998e442bacdeb358bebTXi9LBUwYi02GUlT[] = {
/* columns rows colors chars-per-pixel */
"20 20 133 2 ",
"   c #EC0F00",
".  c #F40000",
"X  c #F70201",
"o  c #F40700",
"O  c #F80000",
"+  c #F90100",
"@  c #FA0000",
"#  c #FA0100",
"$  c #F80300",
"%  c #FA0200",
"&  c #FB0200",
"*  c #FB0300",
"=  c #FB0102",
"-  c #FC0000",
";  c #FD0000",
":  c #FC0001",
">  c #FE0000",
",  c #FE0100",
"<  c #FF0100",
"1  c #FF0101",
"2  c #FE0200",
"3  c #FF0200",
"4  c #FE0201",
"5  c #FF0301",
"6  c #FD0002",
"7  c #FE0002",
"8  c #FE0003",
"9  c #FF0103",
"0  c #F80400",
"q  c #F80500",
"w  c #F80600",
"e  c #F90600",
"r  c #F80700",
"t  c #FA0700",
"y  c #FA0701",
"u  c #FA0703",
"i  c #FC0500",
"p  c #FD0500",
"a  c #FF0400",
"s  c #FD0600",
"d  c #FF0600",
"f  c #FE0104",
"g  c #FD0304",
"h  c #FF0205",
"j  c #FD0006",
"k  c #FD0007",
"l  c #FF0206",
"z  c #F30A00",
"x  c #F30A03",
"c  c #F60800",
"v  c #F40A00",
"b  c #F30D00",
"n  c #F40D00",
"m  c #F60D00",
"M  c #F70805",
"N  c #F70907",
"B  c #F10D04",
"V  c #F80900",
"C  c #FB0900",
"Z  c #F80807",
"A  c #F80109",
"S  c #FB010B",
"D  c #FE0008",
"F  c #FF000A",
"G  c #FE030A",
"H  c #EC1409",
"J  c #0CE900",
"K  c #0FEC00",
"L  c #0CEE00",
"P  c #17E600",
"I  c #17E700",
"U  c #15E702",
"Y  c #17EB00",
"T  c #12E907",
"R  c #13EA06",
"E  c #15ED04",
"W  c #1AE80A",
"Q  c #07F600",
"!  c #05F702",
"~  c #02F706",
"^  c #00FA02",
"/  c #04FA00",
"(  c #05FA00",
")  c #00FC00",
"_  c #00FD00",
"`  c #01FD00",
"'  c #03FC00",
"]  c #02FD00",
"[  c #03FD00",
"{  c #00FE00",
"}  c green",
"|  c #01FF00",
" . c #00FE01",
".. c #00FF01",
"X. c #03FE00",
"o. c #02FF00",
"O. c #03FE01",
"+. c #03FF01",
"@. c #00FD02",
"#. c #00FE02",
"$. c #00FF02",
"%. c #01FF02",
"&. c #01FE03",
"*. c #00FF03",
"=. c #02FF03",
"-. c #04FD00",
";. c #04FE00",
":. c #04FF00",
">. c #05FF00",
",. c #07FF00",
"<. c #00FB06",
"1. c #06FA04",
"2. c #00FF04",
"3. c #01FF04",
"4. c #00FF05",
"5. c #02FF05",
"6. c #00FC07",
"7. c #01FE06",
"8. c #00FF06",
"9. c #00FF07",
"0. c #02FF06",
"q. c #04FC05",
"w. c #09F900",
"e. c #0AFA01",
"r. c #08FF02",
"t. c #0BFE02",
"y. c #0DFF00",
"u. c #0AF804",
"i. c #0AF208",
"p. c #00FC08",
"a. c #00FD09",
"s. c #05FB10",
"d. c #20E704",
/* pixels */
"................& 7 7 o 0.....0.........",
"................f 7 7 a ....../ ........",
"................7 7 a N / ..............",
"................7 7 7 A ....:...........",
"................& & 7 7 ....:.w.........",
"................f 7 q C 0.....' ........",
"................P Y R J :.' ' 0.........",
"..................0.0...' :.............",
"  H B B a 7 7 0...Q ..0.T a c f o q q C ",
"a f 7 N 7 f 7 ....0.u.' P & 7 D 7 7 7 7 ",
"7 G 7 & 7 A 7 ..w.Q L :.I Z 7 7 7 7 7 7 ",
"x x 7 C d . 7 a.....:...i.q q C a q a a ",
"..0...<...e.....W Y J T y.~ 5...........",
":.....0.../ ..<.& f f & a...........:...",
"..../ / ......0.q & & m ......u.........",
"....0...0.0.....f D 7 o ....0...........",
"................& 7 7 C ..:.../ ........",
"................& 7 7 c ..:.............",
"................7 7 7 c ..:.../ ........",
"................7 7 7 x ................"
};
